<svg width="775" height="256" viewBox="0 0 775 256" fill="none" xmlns="http://www.w3.org/2000/svg">
<path d="M241.182 80C240.94 76.9697 239.803 74.6061 237.773 72.9091C235.773 71.2121 232.727 70.3636 228.636 70.3636C226.03 70.3636 223.894 70.6818 222.227 71.3182C220.591 71.9242 219.379 72.7576 218.591 73.8182C217.803 74.8788 217.394 76.0909 217.364 77.4545C217.303 78.5758 217.5 79.5909 217.955 80.5C218.44 81.3788 219.197 82.1818 220.227 82.9091C221.258 83.6061 222.576 84.2424 224.182 84.8182C225.788 85.3939 227.697 85.9091 229.909 86.3636L237.546 88C242.697 89.0909 247.106 90.5303 250.773 92.3182C254.44 94.1061 257.44 96.2121 259.773 98.6364C262.106 101.03 263.818 103.727 264.909 106.727C266.03 109.727 266.606 113 266.636 116.545C266.606 122.667 265.076 127.848 262.046 132.091C259.015 136.333 254.682 139.561 249.046 141.773C243.44 143.985 236.697 145.091 228.818 145.091C220.727 145.091 213.667 143.894 207.636 141.5C201.636 139.106 196.97 135.424 193.636 130.455C190.333 125.455 188.667 119.061 188.636 111.273H212.636C212.788 114.121 213.5 116.515 214.773 118.455C216.046 120.394 217.833 121.864 220.136 122.864C222.47 123.864 225.243 124.364 228.455 124.364C231.152 124.364 233.409 124.03 235.227 123.364C237.046 122.697 238.424 121.773 239.364 120.591C240.303 119.409 240.788 118.061 240.818 116.545C240.788 115.121 240.318 113.879 239.409 112.818C238.53 111.727 237.076 110.758 235.046 109.909C233.015 109.03 230.273 108.212 226.818 107.455L217.546 105.455C209.303 103.667 202.803 100.682 198.046 96.5C193.318 92.2879 190.97 86.5455 191 79.2727C190.97 73.3636 192.546 68.197 195.727 63.7727C198.94 59.3182 203.379 55.8485 209.046 53.3636C214.743 50.8788 221.273 49.6364 228.636 49.6364C236.152 49.6364 242.652 50.8939 248.136 53.4091C253.621 55.9242 257.849 59.4697 260.818 64.0455C263.818 68.5909 265.333 73.9091 265.364 80H241.182Z" fill="#FC6736"/>
<path d="M321.886 113.455V74.1818H346.977V144H323.159V130.727H322.432C320.917 135.182 318.265 138.667 314.477 141.182C310.69 143.667 306.19 144.909 300.977 144.909C296.099 144.909 291.826 143.788 288.159 141.545C284.523 139.303 281.69 136.212 279.659 132.273C277.659 128.333 276.644 123.818 276.614 118.727V74.1818H301.705V113.455C301.735 116.909 302.614 119.621 304.341 121.591C306.099 123.561 308.553 124.545 311.705 124.545C313.796 124.545 315.599 124.106 317.114 123.227C318.659 122.318 319.841 121.045 320.659 119.409C321.508 117.742 321.917 115.758 321.886 113.455Z" fill="#FC6736"/>
<path d="M359.739 144V74.1818H384.102V87.4545H384.83C386.102 82.5455 388.118 78.9545 390.875 76.6818C393.663 74.4091 396.921 73.2727 400.648 73.2727C401.739 73.2727 402.814 73.3636 403.875 73.5455C404.966 73.697 406.011 73.9242 407.011 74.2273V95.6364C405.769 95.2121 404.239 94.8939 402.421 94.6818C400.602 94.4697 399.042 94.3636 397.739 94.3636C395.284 94.3636 393.072 94.9242 391.102 96.0455C389.163 97.1364 387.633 98.6818 386.511 100.682C385.39 102.652 384.83 104.97 384.83 107.636V144H359.739Z" fill="#FC6736"/>
<path d="M415.239 170.182V74.1818H440.148V86.3636H440.693C441.602 84 442.936 81.8333 444.693 79.8636C446.451 77.8636 448.633 76.2727 451.239 75.0909C453.845 73.8788 456.875 73.2727 460.33 73.2727C464.936 73.2727 469.315 74.5 473.466 76.9545C477.648 79.4091 481.042 83.2727 483.648 88.5455C486.284 93.8182 487.602 100.667 487.602 109.091C487.602 117.152 486.345 123.833 483.83 129.136C481.345 134.439 478.011 138.394 473.83 141C469.678 143.606 465.118 144.909 460.148 144.909C456.875 144.909 453.951 144.379 451.375 143.318C448.83 142.227 446.648 140.758 444.83 138.909C443.042 137.03 441.663 134.909 440.693 132.545H440.33V170.182H415.239ZM439.784 109.091C439.784 112.485 440.224 115.424 441.102 117.909C442.011 120.364 443.284 122.273 444.921 123.636C446.587 124.97 448.572 125.636 450.875 125.636C453.178 125.636 455.133 124.985 456.739 123.682C458.375 122.348 459.618 120.455 460.466 118C461.345 115.515 461.784 112.545 461.784 109.091C461.784 105.636 461.345 102.682 460.466 100.227C459.618 97.7424 458.375 95.8485 456.739 94.5455C455.133 93.2121 453.178 92.5455 450.875 92.5455C448.572 92.5455 446.587 93.2121 444.921 94.5455C443.284 95.8485 442.011 97.7424 441.102 100.227C440.224 102.682 439.784 105.636 439.784 109.091Z" fill="#FC6736"/>
<path d="M498.114 144V74.1818H522.477V87.4545H523.205C524.477 82.5455 526.493 78.9545 529.25 76.6818C532.038 74.4091 535.296 73.2727 539.023 73.2727C540.114 73.2727 541.19 73.3636 542.25 73.5455C543.341 73.697 544.386 73.9242 545.386 74.2273V95.6364C544.144 95.2121 542.614 94.8939 540.796 94.6818C538.977 94.4697 537.417 94.3636 536.114 94.3636C533.659 94.3636 531.447 94.9242 529.477 96.0455C527.538 97.1364 526.008 98.6818 524.886 100.682C523.765 102.652 523.205 104.97 523.205 107.636V144H498.114Z" fill="#FC6736"/>
<path d="M553.614 144V74.1818H578.705V144H553.614ZM566.159 66.9091C562.765 66.9091 559.856 65.7879 557.432 63.5455C555.008 61.303 553.796 58.6061 553.796 55.4545C553.796 52.303 555.008 49.6061 557.432 47.3636C559.856 45.1212 562.765 44 566.159 44C569.583 44 572.493 45.1212 574.886 47.3636C577.311 49.6061 578.523 52.303 578.523 55.4545C578.523 58.6061 577.311 61.303 574.886 63.5455C572.493 65.7879 569.583 66.9091 566.159 66.9091Z" fill="#FC6736"/>
<path d="M655.307 96.9091H632.216C632.095 95.4848 631.595 94.2576 630.716 93.2273C629.837 92.197 628.701 91.4091 627.307 90.8636C625.943 90.2879 624.428 90 622.761 90C620.61 90 618.761 90.3939 617.216 91.1818C615.671 91.9697 614.913 93.0909 614.943 94.5455C614.913 95.5758 615.352 96.5303 616.261 97.4091C617.201 98.2879 619.004 98.9697 621.671 99.4545L635.852 102C643.004 103.303 648.322 105.5 651.807 108.591C655.322 111.652 657.095 115.758 657.125 120.909C657.095 125.879 655.61 130.197 652.671 133.864C649.761 137.5 645.777 140.318 640.716 142.318C635.686 144.288 629.943 145.273 623.489 145.273C612.822 145.273 604.474 143.091 598.443 138.727C592.443 134.364 589.095 128.606 588.398 121.455H613.307C613.64 123.667 614.731 125.379 616.58 126.591C618.458 127.773 620.822 128.364 623.671 128.364C625.974 128.364 627.868 127.97 629.352 127.182C630.868 126.394 631.64 125.273 631.671 123.818C631.64 122.485 630.974 121.424 629.671 120.636C628.398 119.848 626.398 119.212 623.671 118.727L611.307 116.545C604.186 115.303 598.852 112.939 595.307 109.455C591.761 105.97 590.004 101.485 590.034 96C590.004 91.1515 591.277 87.0455 593.852 83.6818C596.458 80.2879 600.171 77.7121 604.989 75.9545C609.837 74.1667 615.58 73.2727 622.216 73.2727C632.307 73.2727 640.261 75.3636 646.08 79.5455C651.928 83.7273 655.004 89.5151 655.307 96.9091Z" fill="#FC6736"/>
<path d="M700.193 145.273C692.739 145.273 686.315 143.848 680.921 141C675.557 138.121 671.421 134 668.511 128.636C665.633 123.242 664.193 116.788 664.193 109.273C664.193 102.061 665.648 95.7576 668.557 90.3636C671.466 84.9697 675.572 80.7727 680.875 77.7727C686.178 74.7727 692.436 73.2727 699.648 73.2727C704.921 73.2727 709.693 74.0909 713.966 75.7273C718.239 77.3636 721.89 79.7424 724.921 82.8636C727.951 85.9545 730.284 89.7121 731.921 94.1364C733.557 98.5606 734.375 103.545 734.375 109.091V114.909H672.011V101.091H711.284C711.254 99.0909 710.739 97.3333 709.739 95.8182C708.769 94.2727 707.451 93.0758 705.784 92.2273C704.148 91.3485 702.284 90.9091 700.193 90.9091C698.163 90.9091 696.299 91.3485 694.602 92.2273C692.905 93.0758 691.542 94.2576 690.511 95.7727C689.511 97.2879 688.981 99.0606 688.921 101.091V116C688.921 118.242 689.39 120.242 690.33 122C691.269 123.758 692.618 125.136 694.375 126.136C696.133 127.136 698.254 127.636 700.739 127.636C702.466 127.636 704.042 127.394 705.466 126.909C706.921 126.424 708.163 125.727 709.193 124.818C710.224 123.879 710.981 122.758 711.466 121.455H734.375C733.587 126.303 731.724 130.515 728.784 134.091C725.845 137.636 721.951 140.394 717.102 142.364C712.284 144.303 706.648 145.273 700.193 145.273Z" fill="#FC6736"/>
<path d="M474.727 229L457.273 159.182H482.364L490.364 201.727H490.909L499.818 159.182H524.182L533.455 201.364H534L541.636 159.182H566.727L549.273 229H522.182L512.364 191.545H511.636L501.818 229H474.727Z" fill="#FC6736"/>
<path d="M574.364 229V159.182H598.727V172.455H599.455C600.727 167.545 602.743 163.955 605.5 161.682C608.288 159.409 611.546 158.273 615.273 158.273C616.364 158.273 617.44 158.364 618.5 158.545C619.591 158.697 620.636 158.924 621.636 159.227V180.636C620.394 180.212 618.864 179.894 617.046 179.682C615.227 179.47 613.667 179.364 612.364 179.364C609.909 179.364 607.697 179.924 605.727 181.045C603.788 182.136 602.258 183.682 601.136 185.682C600.015 187.652 599.455 189.97 599.455 192.636V229H574.364Z" fill="#FC6736"/>
<path d="M646.068 230.091C641.614 230.091 637.674 229.364 634.25 227.909C630.856 226.424 628.19 224.182 626.25 221.182C624.311 218.182 623.341 214.364 623.341 209.727C623.341 205.909 623.993 202.652 625.296 199.955C626.599 197.227 628.417 195 630.75 193.273C633.083 191.545 635.796 190.227 638.886 189.318C642.008 188.409 645.371 187.818 648.977 187.545C652.886 187.242 656.023 186.879 658.386 186.455C660.78 186 662.508 185.379 663.568 184.591C664.629 183.773 665.159 182.697 665.159 181.364V181.182C665.159 179.364 664.462 177.97 663.068 177C661.674 176.03 659.886 175.545 657.705 175.545C655.311 175.545 653.356 176.076 651.841 177.136C650.356 178.167 649.462 179.758 649.159 181.909H626.068C626.371 177.667 627.72 173.758 630.114 170.182C632.538 166.576 636.068 163.697 640.705 161.545C645.341 159.364 651.129 158.273 658.068 158.273C663.068 158.273 667.553 158.864 671.523 160.045C675.493 161.197 678.871 162.818 681.659 164.909C684.447 166.97 686.568 169.394 688.023 172.182C689.508 174.939 690.25 177.939 690.25 181.182V229H666.796V219.182H666.25C664.856 221.788 663.159 223.894 661.159 225.5C659.19 227.106 656.932 228.273 654.386 229C651.871 229.727 649.099 230.091 646.068 230.091ZM654.25 214.273C656.159 214.273 657.947 213.879 659.614 213.091C661.311 212.303 662.69 211.167 663.75 209.682C664.811 208.197 665.341 206.394 665.341 204.273V198.455C664.674 198.727 663.962 198.985 663.205 199.227C662.477 199.47 661.69 199.697 660.841 199.909C660.023 200.121 659.144 200.318 658.205 200.5C657.296 200.682 656.341 200.848 655.341 201C653.402 201.303 651.811 201.803 650.568 202.5C649.356 203.167 648.447 204 647.841 205C647.265 205.97 646.977 207.061 646.977 208.273C646.977 210.212 647.659 211.697 649.023 212.727C650.386 213.758 652.129 214.273 654.25 214.273Z" fill="#FC6736"/>
<path d="M702.239 255.182V159.182H727.148V171.364H727.693C728.602 169 729.936 166.833 731.693 164.864C733.451 162.864 735.633 161.273 738.239 160.091C740.845 158.879 743.875 158.273 747.33 158.273C751.936 158.273 756.315 159.5 760.466 161.955C764.648 164.409 768.042 168.273 770.648 173.545C773.284 178.818 774.602 185.667 774.602 194.091C774.602 202.152 773.345 208.833 770.83 214.136C768.345 219.439 765.011 223.394 760.83 226C756.678 228.606 752.118 229.909 747.148 229.909C743.875 229.909 740.951 229.379 738.375 228.318C735.83 227.227 733.648 225.758 731.83 223.909C730.042 222.03 728.663 219.909 727.693 217.545H727.33V255.182H702.239ZM726.784 194.091C726.784 197.485 727.224 200.424 728.102 202.909C729.011 205.364 730.284 207.273 731.921 208.636C733.587 209.97 735.572 210.636 737.875 210.636C740.178 210.636 742.133 209.985 743.739 208.682C745.375 207.348 746.617 205.455 747.466 203C748.345 200.515 748.784 197.545 748.784 194.091C748.784 190.636 748.345 187.682 747.466 185.227C746.617 182.742 745.375 180.848 743.739 179.545C742.133 178.212 740.178 177.545 737.875 177.545C735.572 177.545 733.587 178.212 731.921 179.545C730.284 180.848 729.011 182.742 728.102 185.227C727.224 187.682 726.784 190.636 726.784 194.091Z" fill="#FC6736"/>
<path d="M87 52.7778V164M87 52.7778H48.5C42.8273 52.7778 37.3869 50.5243 33.3757 46.5131C29.3646 42.502 27.1111 37.0616 27.1111 31.3889C27.1111 25.7162 29.3646 20.2758 33.3757 16.2646C37.3869 12.2534 42.8273 10 48.5 10C78.4444 10 87 52.7778 87 52.7778ZM87 52.7778H125.5C131.172 52.7778 136.613 50.5243 140.625 46.5131C144.635 42.502 146.889 37.0616 146.889 31.3889C146.889 25.7162 144.635 20.2758 140.625 16.2646C136.613 12.2534 131.172 10 125.5 10C95.5556 10 87 52.7778 87 52.7778ZM10 104.111H164M37.3778 164H136.622C146.205 164 150.997 164 154.657 162.135C157.877 160.495 160.495 157.877 162.135 154.657C164 150.997 164 146.205 164 136.622V80.1556C164 70.5725 164 65.7809 162.135 62.1206C160.495 58.9009 157.877 56.2832 154.657 54.6428C150.997 52.7778 146.205 52.7778 136.622 52.7778H37.3778C27.7947 52.7778 23.0031 52.7778 19.3428 54.6428C16.1231 56.2832 13.5055 58.9009 11.865 62.1206C10 65.7809 10 70.5725 10 80.1556V136.622C10 146.205 10 150.997 11.865 154.657C13.5055 157.877 16.1231 160.495 19.3428 162.135C23.0031 164 27.7946 164 37.3778 164Z" stroke="#3BA169" stroke-width="20" stroke-linecap="round" stroke-linejoin="round"/>
</svg>
